<?xml version="1.0"?>
<svg xmlns="http://www.w3.org/2000/svg" id="Filled" height="512px" viewBox="0 0 512 512" width="512px" class=""><g><rect fill="#e9eef2" height="448" rx="16" transform="matrix(-1 0 0 -1 512 510.964)" width="464" x="24" y="31.482" data-original="#E9EEF2" class=""/><path d="m488 47.482v48h-464v-48a16 16 0 0 1 16-16h432a16 16 0 0 1 16 16z" fill="#c3c6c7" data-original="#C3C6C7" class="active-path" style="fill:#C3C6C7"/><path d="m72 144h256v160h-256z" fill="#eb423f" data-original="#EB423F" class="" style="fill:#FFCE00" data-old_color="#eb423f"/><path d="m360 144h80v64h-80z" fill="#eb423f" data-original="#EB423F" class="" style="fill:#FFCE00" data-old_color="#eb423f"/><path d="m184 248v-48l48 24z" fill="#e9eef2" data-original="#E9EEF2" class=""/><path d="m360 240h80v64h-80z" fill="#eb423f" data-original="#EB423F" class="" style="fill:#FFCE00" data-old_color="#eb423f"/><path d="m360 336h80v64h-80z" fill="#eb423f" data-original="#EB423F" class="" style="fill:#FFCE00" data-old_color="#eb423f"/><path d="m472 24h-432a24.028 24.028 0 0 0 -24 24v416a24.028 24.028 0 0 0 24 24h432a24.028 24.028 0 0 0 24-24v-416a24.028 24.028 0 0 0 -24-24zm-432 16h432a8.009 8.009 0 0 1 8 8v40h-448v-40a8.009 8.009 0 0 1 8-8zm432 432h-432a8.009 8.009 0 0 1 -8-8v-360h448v360a8.009 8.009 0 0 1 -8 8z" data-original="#000000" class="" style="fill:#000000"/><path d="m328 136h-256a8 8 0 0 0 -8 8v160a8 8 0 0 0 8 8h256a8 8 0 0 0 8-8v-160a8 8 0 0 0 -8-8zm-8 160h-240v-144h240z" data-original="#000000" class="" style="fill:#000000"/><circle cx="120" cy="64" r="8" data-original="#000000" class="" style="fill:#000000"/><circle cx="88" cy="64" r="8" data-original="#000000" class="" style="fill:#000000"/><circle cx="56" cy="64" r="8" data-original="#000000" class="" style="fill:#000000"/><path d="m440 136h-80a8 8 0 0 0 -8 8v64a8 8 0 0 0 8 8h80a8 8 0 0 0 8-8v-64a8 8 0 0 0 -8-8zm-8 64h-64v-48h64z" data-original="#000000" class="" style="fill:#000000"/><path d="m179.794 254.806a8 8 0 0 0 7.784.349l48-24a8 8 0 0 0 0-14.31l-48-24a8 8 0 0 0 -11.578 7.155v48a8 8 0 0 0 3.794 6.806zm12.206-41.862 22.111 11.056-22.111 11.056z" data-original="#000000" class="" style="fill:#000000"/><path d="m136 328h-64a8 8 0 0 0 0 16h64a8 8 0 0 0 0-16z" data-original="#000000" class="" style="fill:#000000"/><path d="m224 368a8 8 0 0 0 -8-8h-112a8 8 0 0 0 0 16h112a8 8 0 0 0 8-8z" data-original="#000000" class="" style="fill:#000000"/><path d="m104 392a8 8 0 0 0 0 16h88a8 8 0 0 0 0-16z" data-original="#000000" class="" style="fill:#000000"/><circle cx="72" cy="368" r="8" data-original="#000000" class="" style="fill:#000000"/><circle cx="72" cy="400" r="8" data-original="#000000" class="" style="fill:#000000"/><path d="m264 424h-160a8 8 0 0 0 0 16h160a8 8 0 0 0 0-16z" data-original="#000000" class="" style="fill:#000000"/><circle cx="72" cy="432" r="8" data-original="#000000" class="" style="fill:#000000"/><path d="m392 168v16l16-8z" data-original="#000000" class="" style="fill:#000000"/><path d="m440 232h-80a8 8 0 0 0 -8 8v64a8 8 0 0 0 8 8h80a8 8 0 0 0 8-8v-64a8 8 0 0 0 -8-8zm-8 64h-64v-48h64z" data-original="#000000" class="" style="fill:#000000"/><path d="m392 264v16l16-8z" data-original="#000000" class="" style="fill:#000000"/><path d="m440 328h-80a8 8 0 0 0 -8 8v64a8 8 0 0 0 8 8h80a8 8 0 0 0 8-8v-64a8 8 0 0 0 -8-8zm-8 64h-64v-48h64z" data-original="#000000" class="" style="fill:#000000"/><path d="m392 360v16l16-8z" data-original="#000000" class="" style="fill:#000000"/><circle cx="368" cy="432" r="8" data-original="#000000" class="" style="fill:#000000"/><circle cx="400" cy="432" r="8" data-original="#000000" class="" style="fill:#000000"/><circle cx="432" cy="432" r="8" data-original="#000000" class="" style="fill:#000000"/></g> </svg>
